<svg xmlns="http://www.w3.org/2000/svg" width="16" height="11" version="1.2"><path d="M11.1.7 11 .6h-.2q0-.1 0 0h-.2q-.1 0-.1.1h-.1L4.2 8.4 1.8 6.1 1.7 6h-.2v-.1q-.1 0-.1.1h-.2l-.1.1-.3.3-.1.1v.2q0 .2.1.4l3 3 .1.1H4q.1.1.2.1H4.5q0-.1.1-.1t.1-.1.1-.1l6.7-8.4v-.1h.1v-.4l-.1-.1-.1-.1-.3-.2zM8.6 8.3l-.1-.1h-.2q0-.1-.1-.1L8.1 8 8 7.9h-.5l-.1.1-.3.3q-.1.1-.1.2v.4q.1 0 .1.1l1.1 1.1q.2.2.5.2h.1q.1-.1.2-.1t.1-.1.1-.1l6.7-8.4v-.1l.1-.1v-.2q-.1 0-.1-.1V1h-.1l-.4-.3q0-.1-.1-.1h-.4q-.1.1-.1.2L8.6 8.3z" /></svg>