<svg version="1.2" xmlns="http://www.w3.org/2000/svg" viewBox="0 0 303 304" width="303" height="304"><style>.a{fill:#daf7f3}.b{fill:#fff}.c{fill:#42cba5;stroke:#316474;stroke-width:1}.d{fill:#fff;stroke:#316474;stroke-width:1}.e{fill:#eefefa;stroke:#316474}.f{fill:#316474}.g{fill:#fff;stroke:#316474}.h{fill:none;stroke:#316474}.i{fill:#42cba5;stroke:#316474}</style><path fill-rule="evenodd" class="a" d="m229.6 226.2c32.6-11 57.3-42 53.8-86.8-5.4-68.1-71-85-111.9-64.9-55.5 27.2-62.5 31.7-102.3 31.7-29.6 0-59.7 14.2-63.5 52.8-2.7 27.9 8.3 52.3 48.9 64.7 74 22.7 143.4 13.1 175 2.5z"/><path fill-rule="evenodd" class="b" d="m131.6 134.9c6.3 0 11.3-5.2 11.3-11.7 0-6.5-5-11.8-11.3-11.8-5.1 0-9.4 3.5-10.8 8.3q-0.3-0.1-0.6-0.2-0.3-0.1-0.6-0.1-0.3-0.1-0.6-0.1-0.3 0-0.6 0c-4.2 0-7.6 3.5-7.6 7.8 0 4.3 3.4 7.8 7.6 7.8zm-25.9 59.8c3.5 0 6.3-2.8 6.3-6.3 0-3.4-2.8-6.2-6.3-6.2-1.2 0-2.3 0.3-3.2 0.8 0-6.5-5.3-11.8-11.9-11.8-5.3 0-9.8 3.4-11.3 8.1q-0.3 0-0.6-0.1-0.2 0-0.5-0.1-0.3 0-0.5 0-0.3-0.1-0.6-0.1c-4.4 0-7.9 3.6-7.9 7.9 0 4.3 3.5 7.8 7.9 7.8z"/><path class="c" d="m10.2 115.7c0.4-4.1 4.1-7.1 8.2-6.7l35.4 3.7c4.1 0.4 7.1 4.1 6.7 8.3l-8.9 84.6c-0.5 4.1-4.2 7.1-8.3 6.6l-35.4-3.7c-4.1-0.4-7.1-4.1-6.6-8.2z"/><path class="d" d="m10.5 112c0.5-4.1 4.2-7.1 8.3-6.7l35.2 3.7c4.1 0.5 7.1 4.2 6.7 8.3l-8.9 84.2c-0.4 4.2-4.1 7.1-8.2 6.7l-35.3-3.7c-4.1-0.4-7.1-4.1-6.6-8.2z"/><path class="e" d="m57.2 117.7l-8.6 82.1q-0.1 1-0.6 2-0.6 1-1.4 1.7-0.9 0.6-1.9 1-1.1 0.3-2.1 0.2l-33-3.5q-1.1-0.1-2.1-0.6-0.9-0.6-1.6-1.4-0.7-0.9-1-1.9-0.3-1.1-0.2-2.2l8.6-82q0.1-1.1 0.6-2 0.5-1 1.4-1.7 0.8-0.7 1.9-1 1-0.3 2.1-0.2l5.3 0.6 22.4 2.3 5.3 0.6q1.1 0.1 2 0.6 1 0.6 1.7 1.4 0.7 0.8 1 1.9 0.3 1 0.2 2.1z"/><path class="f" d="m26.2 168.9q1.3 0.2 2.6 0.3 0.4-3.3 0.7-6.5l-2.6-0.3q-0.4 3.3-0.7 6.5zm-2.7-9.6l2.2-1.8 1.9 2.3 1.1-1-1.8-2.2 2.2-1.9-0.9-1.1-2.2 1.8-1.9-2.2-1.1 0.9 1.8 2.3-2.2 1.8c0 0 0.9 1.1 0.9 1.1zm-0.8 5.3q-0.2 2-0.5 3.9c0.9 0.1 1.8 0.2 2.7 0.3q0.2-2 0.4-3.9c-0.9-0.1-1.8-0.2-2.6-0.3zm16.8-8.8q-0.8 7.2-1.5 14.4c0.9 0.1 1.7 0.2 2.6 0.2q0.8-7.1 1.5-14.3c-0.8-0.2-1.7-0.2-2.6-0.3zm-4.3 2.6q-0.6 5.7-1.1 11.4 1.3 0.1 2.6 0.2c0.4-3.9 0.8-7.8 1.2-11.7-0.8-0.2-1.7-0.2-2.6-0.3q0 0.2-0.1 0.4zm-4.1 1.8q-0.1 0.2-0.1 0.5-0.4 4.3-0.9 8.6l2.6 0.3q0.2-1.5 0.4-3c0.2-2.1 0.4-4.1 0.6-6.1q-1.3-0.2-2.6-0.3z"/><path fill-rule="evenodd" class="g" d="m17.9 114.5q0 0.3 0.1 0.6 0 0.3 0.3 0.6 0.2 0.2 0.4 0.4 0.3 0.2 0.7 0.2 0.3 0 0.6-0.1 0.3-0.1 0.6-0.3 0.2-0.2 0.4-0.5 0.1-0.2 0.2-0.6 0-0.3-0.1-0.6-0.1-0.3-0.3-0.6-0.2-0.2-0.5-0.4-0.3-0.1-0.6-0.2-0.3 0-0.6 0.1-0.3 0.1-0.6 0.3-0.3 0.2-0.4 0.5-0.2 0.3-0.2 0.6zm214.1 88.2q0.1-0.1 0.2-0.1 0 0 0.1 0 0.1-0.1 0.2-0.1 0 0 0 0 0 0 0 0 0 0 0 0 0.1 0 0.1-0.1l-0.7-10q-0.1 0-0.1 0-0.3-0.1-0.7-0.1l-33.9 2.3q-0.4 0.1-0.7 0.2 0 0 0 0 0 0 0 0 0 0.1 0 0.1 0 0 0 0l0.7 10q0 0 0 0 0 0 0 0 0 0 0 0.1 0 0 0 0 0.3 0.1 0.7 0l33.9-2.3q0.1 0 0.2 0z"/><path class="b" d="m283.7 191.7l-138.8 9.7c-2.9 0.2-5.4-2-5.6-4.9l-6.2-88.9c-0.2-2.8 1.9-5.3 4.8-5.5l138.9-9.7c2.8-0.2 5.3 2 5.5 4.8l6.3 88.9c0.2 2.9-2 5.4-4.9 5.6z"/><path class="h" d="m144.9 201.4c-2.9 0.2-5.4-2-5.6-4.9l-6.2-88.9c-0.2-2.8 1.9-5.3 4.8-5.5l138.9-9.7c2.8-0.2 5.3 2 5.5 4.8l6.3 88.9c0.2 2.9-2 5.4-4.9 5.6"/><path class="e" d="m278.6 187.4l-129.9 9.1c-2.4 0.1-4.5-1.6-4.7-3.9l-5.7-80.9c-0.1-2.3 1.7-4.4 4.1-4.5l129.9-9.1c2.4-0.2 4.5 1.6 4.7 3.9l5.6 80.9c0.2 2.3-1.6 4.3-4 4.5z"/><path class="i" d="m230.2 196l68.5-4.8 0.4 6c0.1 0.8-0.1 1.5-0.4 2-0.2 0.5-0.6 0.7-0.9 0.7l-165 11.5c-0.3 0-0.7-0.1-1-0.6-0.4-0.4-0.6-1.1-0.7-1.9l-0.4-6 68.5-4.8c0.3 0.8 0.7 1.5 1.2 2 0.5 0.6 1.3 1 2.1 1l24.9-1.8c0.8 0 1.5-0.5 1.9-1.2 0.5-0.6 0.8-1.3 0.9-2.1z"/><path class="g" d="m230.4 195.1l69.9-4.9 0.2 3.7q0.1 0.3 0 0.5-0.1 0.3-0.3 0.5-0.2 0.3-0.5 0.4-0.3 0.1-0.6 0.2l-168.2 11.7q-0.3 0-0.6-0.1-0.3-0.1-0.5-0.3-0.3-0.2-0.4-0.4-0.1-0.3-0.2-0.6l-0.2-3.7 69.9-4.9q0.2 0.5 0.6 0.8 0.3 0.4 0.7 0.6 0.4 0.3 0.9 0.4 0.5 0.1 1 0.1l25.4-1.8q0.4-0.1 0.9-0.2 0.5-0.2 0.8-0.5 0.4-0.3 0.7-0.7 0.3-0.4 0.5-0.8z"/><path class="i" d="m211.8 165.5c-8.9 0.6-16.5-6-17.1-14.8-0.6-8.9 6-16.5 14.8-17.1 8.9-0.6 16.5 6 17.1 14.8 0.6 8.9-6 16.5-14.8 17.1z"/><path class="g" d="m208.2 153.1l-3.4-2.7q-0.3-0.3-0.7-0.4-0.4-0.1-0.7-0.1-0.4 0.1-0.8 0.2-0.3 0.2-0.5 0.5-0.3 0.3-0.4 0.7-0.1 0.3-0.1 0.7 0.1 0.4 0.2 0.7 0.2 0.4 0.5 0.6l5.1 4.1q0.3 0.3 0.7 0.4 0.4 0.1 0.8 0 0.4 0 0.8-0.3 0.3-0.2 0.5-0.5l8.1-12.2q0.2-0.3 0.3-0.7 0-0.4 0-0.8-0.1-0.3-0.3-0.7-0.3-0.3-0.6-0.5-0.3-0.2-0.7-0.2-0.4-0.1-0.7 0-0.4 0-0.7 0.3-0.3 0.2-0.6 0.5c0 0-6.8 10.4-6.8 10.4z"/></svg>