<svg version="1.2" xmlns="http://www.w3.org/2000/svg" viewBox="0 0 212 212" width="212" height="212"><path class="a" d="m106.3 0.5c58.4 0 105.7 47.3 105.7 105.8 0 58.4-47.3 105.7-105.8 105.7-58.4 0-105.7-47.3-105.7-105.8 0-58.4 47.3-105.7 105.8-105.7z"/><path class="b" d="m173.6 171.6q-0.3-0.4-0.5-0.7-0.3-0.4-0.6-0.8-0.2-0.3-0.5-0.7-0.2-0.4-0.5-0.7-0.3-0.5-0.6-0.9-0.4-0.4-0.7-0.8-0.3-0.4-0.6-0.8-0.4-0.4-0.7-0.8-0.4-0.5-0.8-0.9-0.4-0.5-0.8-0.9-0.4-0.5-0.8-0.9-0.4-0.4-0.8-0.9-0.7-0.7-1.4-1.4-0.7-0.7-1.5-1.4-0.7-0.7-1.5-1.3-0.7-0.7-1.5-1.3-1.2-1-2.5-2-1.2-0.9-2.5-1.8-1.2-0.8-2.6-1.7-1.3-0.8-2.6-1.6-0.8-0.4-1.5-0.8-0.7-0.4-1.5-0.8-0.7-0.3-1.5-0.7-0.7-0.4-1.5-0.7-0.1-0.1-0.2-0.1c-9.8-4.4-22.1-7.5-37.4-7.5-15.3 0-27.6 3.1-37.4 7.5q-0.5 0.2-1 0.5-0.8 0.3-1.6 0.7-0.8 0.4-1.6 0.8-0.7 0.5-1.5 0.9-0.8 0.4-1.5 0.9-1.2 0.7-2.4 1.4-1.2 0.8-2.3 1.6-1.2 0.8-2.3 1.6-1.1 0.9-2.2 1.8-0.8 0.6-1.5 1.3-0.8 0.6-1.5 1.3-0.8 0.7-1.5 1.4-0.7 0.7-1.4 1.4-0.4 0.5-0.8 0.9-0.4 0.4-0.8 0.9-0.4 0.4-0.8 0.9-0.4 0.4-0.8 0.9-0.3 0.4-0.7 0.8-0.3 0.4-0.6 0.8-0.3 0.4-0.7 0.8-0.3 0.4-0.6 0.9-0.3 0.3-0.5 0.7-0.3 0.4-0.6 0.7-0.2 0.4-0.5 0.8-0.2 0.3-0.5 0.7-0.1 0.3-0.3 0.6-0.2 0.3-0.4 0.6-0.2 0.3-0.4 0.6-0.1 0.2-0.3 0.5-0.1 0.1-0.1 0.2-0.2 0.2-0.3 0.5-0.1 0.2-0.3 0.5-0.1 0.2-0.2 0.5-0.2 0.2-0.3 0.4c-0.5 1.1-0.8 1.7-0.8 1.7v0.4c18.3 17.9 43.3 29 70.9 29 27.7 0 52.8-11.1 71.1-29.1v-0.3c0 0-0.6-1.4-2-3.8q-0.2-0.3-0.3-0.5-0.2-0.3-0.4-0.6-0.2-0.3-0.4-0.6-0.2-0.3-0.3-0.6zm-67.6-46.1q4 0 7.7-0.7 0.4-0.1 0.9-0.2 0.5-0.1 0.9-0.2 0.5-0.2 0.9-0.3 0.5-0.1 0.9-0.2 0.7-0.2 1.3-0.5 0.7-0.2 1.3-0.4 0.6-0.3 1.3-0.5 0.6-0.3 1.2-0.6 0.8-0.4 1.6-0.8 0.8-0.4 1.6-0.9 0.8-0.4 1.5-0.9 0.8-0.5 1.5-1.1 1.4-1 2.7-2.2 1.3-1.2 2.5-2.5 1.2-1.3 2.3-2.8 1.1-1.4 2-2.9 0.3-0.6 0.6-1.2 0.4-0.6 0.7-1.2 0.3-0.6 0.5-1.2 0.3-0.7 0.6-1.3 0.3-0.6 0.5-1.3 0.2-0.6 0.4-1.3 0.3-0.6 0.4-1.3 0.2-0.7 0.4-1.3 0.5-1.8 0.7-3.7 0.4-2.9 0.4-5.8 0-3-0.4-5.9-0.1-0.7-0.2-1.3-0.1-0.7-0.3-1.4-0.1-0.7-0.3-1.4-0.2-0.7-0.4-1.3-0.3-1.1-0.7-2.2-0.4-1.1-0.9-2.1-0.4-1.1-0.9-2.1-0.6-1-1.1-1.9-0.9-1.6-2-3-1.1-1.4-2.3-2.8-1.2-1.3-2.5-2.5-1.3-1.2-2.7-2.2-0.7-0.6-1.5-1.1-0.7-0.5-1.5-0.9-0.8-0.5-1.6-0.9-0.8-0.4-1.6-0.8-0.6-0.3-1.2-0.6-0.7-0.2-1.3-0.5-0.6-0.2-1.3-0.4-0.6-0.3-1.3-0.5-0.4-0.1-0.9-0.2-0.4-0.1-0.9-0.2-0.4-0.2-0.9-0.3-0.5-0.1-0.9-0.1-1-0.2-1.9-0.4-1-0.1-1.9-0.2-1-0.1-2-0.1-0.9-0.1-1.9-0.1c-21.2 0-37.3 16.2-37.3 37.4 0 21.1 16.1 37.3 37.3 37.3z"/></svg>